<?xml version="1.0" encoding="utf-8"?>
<!-- Svg Vector Icons : http://www.onlinewebfonts.com/icon -->
<!DOCTYPE svg PUBLIC "-//W3C//DTD SVG 1.1//EN" "http://www.w3.org/Graphics/SVG/1.1/DTD/svg11.dtd">
<svg version="1.1" xmlns="http://www.w3.org/2000/svg" xmlns:xlink="http://www.w3.org/1999/xlink" x="0px" y="0px" fill="#000" viewBox="0 0 1000 1000" enable-background="new 0 0 1000 1000" xml:space="preserve">
<metadata> Svg Vector Icons : http://www.onlinewebfonts.com/icon </metadata>
<g><g transform="translate(0.000000,512.000000) scale(0.100000,-0.100000)"><path d="M2595.1,5001.3c-538.3-105.4-965.5-438.7-1195.4-934.8c-114.9-247.1-143.7-385-143.7-685.8c0-300.8,28.7-438.7,143.7-685.8c126.4-273.9,323.8-511.5,559.4-672.4c132.2-90,383.1-203.1,540.2-243.3c147.5-36.4,503.8-47.9,672.4-21.1l97.7,15.3L3869,685.4c329.5-597.7,599.6-1095.7,599.6-1107.2c0-9.6-346.7-653.2-772-1425.2c-923.3-1685.8-890.8-1626.4-942.5-1825.6c-78.5-310.3-11.5-659,180.1-944.4c103.4-155.2,157.1-189.7,205-130.3c17.2,19.2,438.7,779.7,938.7,1687.7c500,908,913.8,1651.3,921.4,1651.3s415.7-735.6,910-1634.1c494.2-896.5,913.7-1655.1,932.9-1683.9c21.1-30.6,49.8-53.6,65.1-53.6c82.4,0,272,321.8,333.3,567c70.9,275.9,36.4,551.7-105.4,831.4c-38.3,76.6-411.9,764.4-827.6,1530.6C5892-1086.6,5547.2-450.6,5541.4-437.2c-5.7,13.4,260.5,517.2,590,1116.8l601.5,1093.8l57.5-9.6c657-114.9,1310.3,153.3,1674.3,683.9C8552.8,2578,8665.9,2829,8708,2988c47.9,185.8,47.9,599.6,0,785.4c-128.3,492.3-457.8,886.9-915.7,1099.6c-247.1,114.9-385,143.7-685.8,143.7c-298.8,0-438.7-28.7-683.9-141.8c-373.6-174.3-636-434.9-808.4-808.4c-116.9-250.9-143.7-385-143.7-695.4c1.9-233.7,7.7-289.3,51.7-436.8c74.7-241.4,160.9-402.3,344.8-634.1l55.6-67.1L5466.7,1398c-252.9-457.8-461.7-833.3-467.4-833.3s-216.5,375.5-467.4,833.3l-455.9,833.3l53.6,69c185.8,231.8,272,392.7,346.7,634.1c44.1,147.5,49.8,203,51.7,436.8c0,310.3-26.8,444.4-143.7,695.4c-126.4,273.9-323.7,511.5-559.4,672.4c-128.4,88.1-381.2,201.1-530.6,239.5C3123.9,5022.4,2763.7,5033.9,2595.1,5001.3z M3087.5,4317.4c432.9-90,762.4-496.2,762.4-936.7c0-517.2-440.6-957.8-957.8-957.8s-957.8,440.6-957.8,957.8c0,431,314.2,829.5,733.7,931C2794.4,4342.3,2959.1,4344.2,3087.5,4317.4z M7301.9,4317.4c432.9-90,762.5-496.2,762.5-936.7c0-517.2-440.6-957.8-957.8-957.8s-957.8,440.6-957.8,957.8c0,431,314.2,829.5,733.7,931C7008.8,4342.3,7173.6,4344.2,7301.9,4317.4z M5156.4-253.3c109.2-111.1,82.4-295-55.6-360.1c-91.9-44.1-189.6-26.8-264.4,47.9c-107.3,107.3-67,302.7,76.6,365.9C4982-169,5097-193.9,5156.4-253.3z"/></g></g>
</svg>